<svg width="449" height="504" viewBox="0 0 449 504" fill="none" xmlns="http://www.w3.org/2000/svg">
<circle cx="250" cy="250" r="249.5" stroke="white"/>
<path d="M187.123 229.496C187.123 234.616 185.779 239.128 183.091 243.032L161.875 275H149.203L164.563 252.44H163.411C156.435 252.44 150.707 250.328 146.227 246.104C141.811 241.816 139.603 236.28 139.603 229.496C139.603 222.712 141.811 217.208 146.227 212.984C150.707 208.696 156.435 206.552 163.411 206.552C170.387 206.552 176.083 208.696 180.499 212.984C184.915 217.208 187.123 222.712 187.123 229.496ZM150.643 229.496C150.643 233.208 151.827 236.216 154.195 238.52C156.627 240.824 159.699 241.976 163.411 241.976C167.123 241.976 170.163 240.856 172.531 238.616C174.899 236.312 176.083 233.272 176.083 229.496C176.083 225.72 174.899 222.712 172.531 220.472C170.163 218.168 167.123 217.016 163.411 217.016C159.699 217.016 156.627 218.168 154.195 220.472C151.827 222.712 150.643 225.72 150.643 229.496ZM260.076 227V275H249.708V236.984H233.676V254.84C233.676 262.456 232.012 267.864 228.684 271.064C225.356 274.264 220.62 275.576 214.476 275V265.304C217.42 265.816 219.628 265.208 221.1 263.48C222.572 261.752 223.308 258.712 223.308 254.36V227H260.076ZM280.317 255.416C281.085 259.064 282.845 261.88 285.597 263.864C288.349 265.784 291.709 266.744 295.677 266.744C301.181 266.744 305.309 264.76 308.061 260.792L316.605 265.784C311.869 272.76 304.861 276.248 295.581 276.248C287.773 276.248 281.469 273.88 276.669 269.144C271.869 264.344 269.469 258.296 269.469 251C269.469 243.832 271.837 237.848 276.573 233.048C281.309 228.184 287.389 225.752 294.813 225.752C301.853 225.752 307.613 228.216 312.093 233.144C316.637 238.072 318.909 244.056 318.909 251.096C318.909 252.184 318.781 253.624 318.525 255.416H280.317ZM280.221 246.968H308.445C307.741 243.064 306.109 240.12 303.549 238.136C301.053 236.152 298.109 235.16 294.717 235.16C290.877 235.16 287.677 236.216 285.117 238.328C282.557 240.44 280.925 243.32 280.221 246.968ZM362.829 227V236.984H347.181V275H336.813V236.984H321.069V227H362.829Z" fill="white"/>
<path d="M159.868 321H161.956V333H159.868V327.984H153.652V333H151.564V321H153.652V325.992H159.868V321ZM175.071 321H177.159V333H175.071V330.936C174.031 332.52 172.519 333.312 170.535 333.312C168.855 333.312 167.423 332.704 166.239 331.488C165.055 330.256 164.463 328.76 164.463 327C164.463 325.24 165.055 323.752 166.239 322.536C167.423 321.304 168.855 320.688 170.535 320.688C172.519 320.688 174.031 321.48 175.071 323.064V321ZM170.799 331.296C172.015 331.296 173.031 330.888 173.847 330.072C174.663 329.24 175.071 328.216 175.071 327C175.071 325.784 174.663 324.768 173.847 323.952C173.031 323.12 172.015 322.704 170.799 322.704C169.599 322.704 168.591 323.12 167.775 323.952C166.959 324.768 166.551 325.784 166.551 327C166.551 328.216 166.959 329.24 167.775 330.072C168.591 330.888 169.599 331.296 170.799 331.296ZM194.674 321H196.762V333H180.322V321H182.41V331.008H187.498V321H189.586V331.008H194.674V321ZM216.091 331.488C214.859 332.704 213.363 333.312 211.603 333.312C209.843 333.312 208.347 332.704 207.115 331.488C205.899 330.272 205.291 328.776 205.291 327C205.291 325.224 205.899 323.728 207.115 322.512C208.347 321.296 209.843 320.688 211.603 320.688C213.363 320.688 214.859 321.296 216.091 322.512C217.323 323.728 217.939 325.224 217.939 327C217.939 328.776 217.323 330.272 216.091 331.488ZM211.603 331.272C212.803 331.272 213.811 330.864 214.627 330.048C215.443 329.232 215.851 328.216 215.851 327C215.851 325.784 215.443 324.768 214.627 323.952C213.811 323.136 212.803 322.728 211.603 322.728C210.419 322.728 209.419 323.136 208.603 323.952C207.787 324.768 207.379 325.784 207.379 327C207.379 328.216 207.787 329.232 208.603 330.048C209.419 330.864 210.419 331.272 211.603 331.272ZM230.792 321V333H228.704V322.992H222.488V333H220.4V321H230.792ZM239.035 325.32C240.235 325.32 241.227 325.68 242.011 326.4C242.811 327.104 243.211 328.024 243.211 329.16C243.211 330.296 242.811 331.224 242.011 331.944C241.227 332.648 240.235 333 239.035 333H233.971V321H236.059V325.32H239.035ZM244.771 321H246.859V333H244.771V321ZM239.035 331.056C239.627 331.056 240.123 330.888 240.523 330.552C240.939 330.2 241.147 329.736 241.147 329.16C241.147 328.584 240.939 328.12 240.523 327.768C240.123 327.416 239.627 327.24 239.035 327.24H236.059V331.056H239.035ZM258.977 321V323.016H254.897V333H252.809V323.016H248.705V321H258.977ZM273.431 320.688C275.111 320.688 276.543 321.304 277.727 322.536C278.911 323.752 279.503 325.24 279.503 327C279.503 328.76 278.911 330.256 277.727 331.488C276.543 332.704 275.111 333.312 273.431 333.312C271.447 333.312 269.935 332.52 268.895 330.936V337.8H266.807V321H268.895V323.064C269.935 321.48 271.447 320.688 273.431 320.688ZM273.167 331.296C274.367 331.296 275.375 330.888 276.191 330.072C277.007 329.24 277.415 328.216 277.415 327C277.415 325.784 277.007 324.768 276.191 323.952C275.375 323.12 274.367 322.704 273.167 322.704C271.951 322.704 270.935 323.12 270.119 323.952C269.303 324.768 268.895 325.784 268.895 327C268.895 328.216 269.303 329.24 270.119 330.072C270.935 330.888 271.951 331.296 273.167 331.296ZM291.93 321H294.018V333H291.93V330.936C290.89 332.52 289.378 333.312 287.394 333.312C285.714 333.312 284.282 332.704 283.098 331.488C281.914 330.256 281.322 328.76 281.322 327C281.322 325.24 281.914 323.752 283.098 322.536C284.282 321.304 285.714 320.688 287.394 320.688C289.378 320.688 290.89 321.48 291.93 323.064V321ZM287.658 331.296C288.874 331.296 289.89 330.888 290.706 330.072C291.522 329.24 291.93 328.216 291.93 327C291.93 325.784 291.522 324.768 290.706 323.952C289.89 323.12 288.874 322.704 287.658 322.704C286.458 322.704 285.45 323.12 284.634 323.952C283.818 324.768 283.41 325.784 283.41 327C283.41 328.216 283.818 329.24 284.634 330.072C285.45 330.888 286.458 331.296 287.658 331.296ZM302.63 333.312C300.854 333.312 299.39 332.728 298.238 331.56C297.086 330.392 296.51 328.888 296.51 327.048C296.51 325 296.806 323.424 297.398 322.32C298.006 321.216 299.238 320.216 301.094 319.32C301.43 319.16 301.886 318.952 302.462 318.696C303.054 318.44 303.486 318.248 303.758 318.12C304.03 317.976 304.334 317.792 304.67 317.568C305.006 317.328 305.254 317.072 305.414 316.8C305.59 316.512 305.718 316.184 305.798 315.816L307.478 316.776C307.43 317.032 307.366 317.272 307.286 317.496C307.206 317.704 307.086 317.912 306.926 318.12C306.782 318.312 306.654 318.48 306.542 318.624C306.43 318.768 306.238 318.928 305.966 319.104C305.71 319.264 305.518 319.384 305.39 319.464C305.278 319.544 305.046 319.664 304.694 319.824C304.358 319.984 304.126 320.096 303.998 320.16C303.886 320.208 303.622 320.32 303.206 320.496C302.79 320.656 302.534 320.76 302.438 320.808C301.35 321.272 300.55 321.744 300.038 322.224C299.542 322.704 299.182 323.312 298.958 324.048C299.47 323.408 300.11 322.936 300.878 322.632C301.646 322.328 302.414 322.176 303.182 322.176C304.686 322.176 305.958 322.688 306.998 323.712C308.054 324.736 308.582 326.056 308.582 327.672C308.582 329.304 308.022 330.656 306.902 331.728C305.782 332.784 304.358 333.312 302.63 333.312ZM299.822 330.24C300.574 330.944 301.51 331.296 302.63 331.296C303.75 331.296 304.67 330.952 305.39 330.264C306.126 329.576 306.494 328.712 306.494 327.672C306.494 326.6 306.142 325.728 305.438 325.056C304.75 324.368 303.838 324.024 302.702 324.024C301.678 324.024 300.75 324.352 299.918 325.008C299.102 325.648 298.694 326.496 298.694 327.552C298.694 328.64 299.07 329.536 299.822 330.24ZM320.927 331.488C319.695 332.704 318.199 333.312 316.439 333.312C314.679 333.312 313.183 332.704 311.951 331.488C310.735 330.272 310.127 328.776 310.127 327C310.127 325.224 310.735 323.728 311.951 322.512C313.183 321.296 314.679 320.688 316.439 320.688C318.199 320.688 319.695 321.296 320.927 322.512C322.159 323.728 322.775 325.224 322.775 327C322.775 328.776 322.159 330.272 320.927 331.488ZM316.439 331.272C317.639 331.272 318.647 330.864 319.463 330.048C320.279 329.232 320.687 328.216 320.687 327C320.687 325.784 320.279 324.768 319.463 323.952C318.647 323.136 317.639 322.728 316.439 322.728C315.255 322.728 314.255 323.136 313.439 323.952C312.623 324.768 312.215 325.784 312.215 327C312.215 328.216 312.623 329.232 313.439 330.048C314.255 330.864 315.255 331.272 316.439 331.272ZM333.696 321V323.016H329.616V333H327.528V323.016H323.424V321H333.696ZM340.589 325.32C341.789 325.32 342.781 325.68 343.565 326.4C344.365 327.104 344.765 328.024 344.765 329.16C344.765 330.296 344.365 331.224 343.565 331.944C342.781 332.648 341.789 333 340.589 333H335.525V321H337.613V325.32H340.589ZM346.325 321H348.413V333H346.325V321ZM340.589 331.056C341.181 331.056 341.677 330.888 342.077 330.552C342.493 330.2 342.701 329.736 342.701 329.16C342.701 328.584 342.493 328.12 342.077 327.768C341.677 327.416 341.181 327.24 340.589 327.24H337.613V331.056H340.589ZM135.451 360.832C136.683 361.344 137.299 362.272 137.299 363.616C137.299 364.608 136.963 365.424 136.291 366.064C135.635 366.688 134.691 367 133.459 367H127.459V355H132.979C134.179 355 135.107 355.304 135.763 355.912C136.419 356.504 136.747 357.288 136.747 358.264C136.747 359.416 136.315 360.272 135.451 360.832ZM132.883 356.872H129.499V360.016H132.883C134.099 360.016 134.707 359.48 134.707 358.408C134.707 357.384 134.099 356.872 132.883 356.872ZM133.339 365.104C133.947 365.104 134.411 364.96 134.731 364.672C135.067 364.384 135.235 363.976 135.235 363.448C135.235 362.952 135.067 362.568 134.731 362.296C134.411 362.008 133.947 361.864 133.339 361.864H129.499V365.104H133.339ZM152.177 354.688C153.857 354.688 155.289 355.304 156.473 356.536C157.657 357.752 158.249 359.24 158.249 361C158.249 362.76 157.657 364.256 156.473 365.488C155.289 366.704 153.857 367.312 152.177 367.312C150.193 367.312 148.681 366.52 147.641 364.936V371.8H145.553V355H147.641V357.064C148.681 355.48 150.193 354.688 152.177 354.688ZM151.913 365.296C153.113 365.296 154.121 364.888 154.937 364.072C155.753 363.24 156.161 362.216 156.161 361C156.161 359.784 155.753 358.768 154.937 357.952C154.121 357.12 153.113 356.704 151.913 356.704C150.697 356.704 149.681 357.12 148.865 357.952C148.049 358.768 147.641 359.784 147.641 361C147.641 362.216 148.049 363.24 148.865 364.072C149.681 364.888 150.697 365.296 151.913 365.296ZM170.676 355H172.764V367H170.676V364.936C169.636 366.52 168.124 367.312 166.14 367.312C164.46 367.312 163.028 366.704 161.844 365.488C160.66 364.256 160.068 362.76 160.068 361C160.068 359.24 160.66 357.752 161.844 356.536C163.028 355.304 164.46 354.688 166.14 354.688C168.124 354.688 169.636 355.48 170.676 357.064V355ZM166.404 365.296C167.62 365.296 168.636 364.888 169.452 364.072C170.268 363.24 170.676 362.216 170.676 361C170.676 359.784 170.268 358.768 169.452 357.952C168.636 357.12 167.62 356.704 166.404 356.704C165.204 356.704 164.196 357.12 163.38 357.952C162.564 358.768 162.156 359.784 162.156 361C162.156 362.216 162.564 363.24 163.38 364.072C164.196 364.888 165.204 365.296 166.404 365.296ZM182.408 360.856C183.736 361.4 184.4 362.352 184.4 363.712C184.4 364.72 184 365.576 183.2 366.28C182.4 366.968 181.264 367.312 179.792 367.312C177.392 367.312 175.784 366.352 174.968 364.432L176.72 363.4C177.184 364.712 178.216 365.368 179.816 365.368C180.616 365.368 181.232 365.2 181.664 364.864C182.112 364.512 182.336 364.064 182.336 363.52C182.336 363.04 182.152 362.648 181.784 362.344C181.432 362.04 180.952 361.888 180.344 361.888H178.592V359.992H179.888C180.496 359.992 180.968 359.848 181.304 359.56C181.64 359.256 181.808 358.848 181.808 358.336C181.808 357.824 181.608 357.408 181.208 357.088C180.824 356.768 180.288 356.608 179.6 356.608C178.256 356.608 177.344 357.176 176.864 358.312L175.16 357.328C176.008 355.568 177.488 354.688 179.6 354.688C180.912 354.688 181.944 355.024 182.696 355.696C183.464 356.368 183.848 357.192 183.848 358.168C183.848 359.384 183.368 360.28 182.408 360.856ZM193.286 354.688C194.966 354.688 196.398 355.304 197.582 356.536C198.766 357.752 199.358 359.24 199.358 361C199.358 362.76 198.766 364.256 197.582 365.488C196.398 366.704 194.966 367.312 193.286 367.312C191.302 367.312 189.79 366.52 188.75 364.936V371.8H186.662V355H188.75V357.064C189.79 355.48 191.302 354.688 193.286 354.688ZM193.022 365.296C194.222 365.296 195.23 364.888 196.046 364.072C196.862 363.24 197.27 362.216 197.27 361C197.27 359.784 196.862 358.768 196.046 357.952C195.23 357.12 194.222 356.704 193.022 356.704C191.806 356.704 190.79 357.12 189.974 357.952C189.158 358.768 188.75 359.784 188.75 361C188.75 362.216 189.158 363.24 189.974 364.072C190.79 364.888 191.806 365.296 193.022 365.296ZM211.786 355H213.874V367H211.786V364.936C210.746 366.52 209.234 367.312 207.25 367.312C205.57 367.312 204.138 366.704 202.954 365.488C201.77 364.256 201.178 362.76 201.178 361C201.178 359.24 201.77 357.752 202.954 356.536C204.138 355.304 205.57 354.688 207.25 354.688C209.234 354.688 210.746 355.48 211.786 357.064V355ZM207.514 365.296C208.73 365.296 209.746 364.888 210.562 364.072C211.378 363.24 211.786 362.216 211.786 361C211.786 359.784 211.378 358.768 210.562 357.952C209.746 357.12 208.73 356.704 207.514 356.704C206.314 356.704 205.306 357.12 204.49 357.952C203.674 358.768 203.266 359.784 203.266 361C203.266 362.216 203.674 363.24 204.49 364.072C205.306 364.888 206.314 365.296 207.514 365.296ZM222.485 367.312C220.709 367.312 219.245 366.728 218.093 365.56C216.941 364.392 216.365 362.888 216.365 361.048C216.365 359 216.661 357.424 217.253 356.32C217.861 355.216 219.093 354.216 220.949 353.32C221.285 353.16 221.741 352.952 222.317 352.696C222.909 352.44 223.341 352.248 223.613 352.12C223.885 351.976 224.189 351.792 224.525 351.568C224.861 351.328 225.109 351.072 225.269 350.8C225.445 350.512 225.573 350.184 225.653 349.816L227.333 350.776C227.285 351.032 227.221 351.272 227.141 351.496C227.061 351.704 226.941 351.912 226.781 352.12C226.637 352.312 226.509 352.48 226.397 352.624C226.285 352.768 226.093 352.928 225.821 353.104C225.565 353.264 225.373 353.384 225.245 353.464C225.133 353.544 224.901 353.664 224.549 353.824C224.213 353.984 223.981 354.096 223.853 354.16C223.741 354.208 223.477 354.32 223.061 354.496C222.645 354.656 222.389 354.76 222.293 354.808C221.205 355.272 220.405 355.744 219.893 356.224C219.397 356.704 219.037 357.312 218.813 358.048C219.325 357.408 219.965 356.936 220.733 356.632C221.501 356.328 222.269 356.176 223.037 356.176C224.541 356.176 225.813 356.688 226.853 357.712C227.909 358.736 228.437 360.056 228.437 361.672C228.437 363.304 227.877 364.656 226.757 365.728C225.637 366.784 224.213 367.312 222.485 367.312ZM219.677 364.24C220.429 364.944 221.365 365.296 222.485 365.296C223.605 365.296 224.525 364.952 225.245 364.264C225.981 363.576 226.349 362.712 226.349 361.672C226.349 360.6 225.997 359.728 225.293 359.056C224.605 358.368 223.693 358.024 222.557 358.024C221.533 358.024 220.605 358.352 219.773 359.008C218.957 359.648 218.549 360.496 218.549 361.552C218.549 362.64 218.925 363.536 219.677 364.24ZM240.782 365.488C239.55 366.704 238.054 367.312 236.294 367.312C234.534 367.312 233.038 366.704 231.806 365.488C230.59 364.272 229.982 362.776 229.982 361C229.982 359.224 230.59 357.728 231.806 356.512C233.038 355.296 234.534 354.688 236.294 354.688C238.054 354.688 239.55 355.296 240.782 356.512C242.014 357.728 242.63 359.224 242.63 361C242.63 362.776 242.014 364.272 240.782 365.488ZM236.294 365.272C237.494 365.272 238.502 364.864 239.318 364.048C240.134 363.232 240.542 362.216 240.542 361C240.542 359.784 240.134 358.768 239.318 357.952C238.502 357.136 237.494 356.728 236.294 356.728C235.11 356.728 234.11 357.136 233.294 357.952C232.478 358.768 232.07 359.784 232.07 361C232.07 362.216 232.478 363.232 233.294 364.048C234.11 364.864 235.11 365.272 236.294 365.272ZM253.551 355V357.016H249.471V367H247.383V357.016H243.279V355H253.551ZM265.533 367H262.941L257.469 361.312V367H255.381V355H257.469V360.304L262.653 355H265.341L259.605 360.808L265.533 367ZM267.837 361.96C268.045 363.032 268.533 363.864 269.301 364.456C270.085 365.048 271.045 365.344 272.181 365.344C273.765 365.344 274.917 364.76 275.637 363.592L277.413 364.6C276.245 366.408 274.485 367.312 272.133 367.312C270.229 367.312 268.677 366.72 267.477 365.536C266.293 364.336 265.701 362.824 265.701 361C265.701 359.192 266.285 357.688 267.453 356.488C268.621 355.288 270.133 354.688 271.989 354.688C273.749 354.688 275.181 355.312 276.285 356.56C277.405 357.792 277.965 359.28 277.965 361.024C277.965 361.328 277.941 361.64 277.893 361.96H267.837ZM271.989 356.656C270.869 356.656 269.941 356.976 269.205 357.616C268.469 358.24 268.013 359.08 267.837 360.136H275.853C275.677 359 275.229 358.136 274.509 357.544C273.789 356.952 272.949 356.656 271.989 356.656ZM295.077 355H296.757V367H294.693V358.576L288.045 367H286.365V355H288.429V363.424L295.077 355ZM315.872 350.2H317.96V367H315.872V364.936C314.832 366.52 313.32 367.312 311.336 367.312C309.656 367.312 308.224 366.704 307.04 365.488C305.856 364.256 305.264 362.76 305.264 361C305.264 359.24 305.856 357.752 307.04 356.536C308.224 355.304 309.656 354.688 311.336 354.688C313.32 354.688 314.832 355.48 315.872 357.064V350.2ZM311.6 365.296C312.816 365.296 313.832 364.888 314.648 364.072C315.464 363.24 315.872 362.216 315.872 361C315.872 359.784 315.464 358.768 314.648 357.952C313.832 357.12 312.816 356.704 311.6 356.704C310.4 356.704 309.392 357.12 308.576 357.952C307.76 358.768 307.352 359.784 307.352 361C307.352 362.216 307.76 363.24 308.576 364.072C309.392 364.888 310.4 365.296 311.6 365.296ZM322.179 352.816C321.779 352.816 321.443 352.68 321.171 352.408C320.899 352.136 320.763 351.808 320.763 351.424C320.763 351.04 320.899 350.712 321.171 350.44C321.443 350.152 321.779 350.008 322.179 350.008C322.563 350.008 322.891 350.152 323.163 350.44C323.435 350.712 323.571 351.04 323.571 351.424C323.571 351.808 323.435 352.136 323.163 352.408C322.891 352.68 322.563 352.816 322.179 352.816ZM321.123 367V355H323.211V367H321.123ZM336.357 355H338.421V366.496C338.421 368.272 337.821 369.648 336.621 370.624C335.421 371.616 333.981 372.112 332.301 372.112C330.957 372.112 329.797 371.856 328.821 371.344C327.845 370.848 327.109 370.128 326.613 369.184L328.437 368.152C329.093 369.496 330.397 370.168 332.349 370.168C333.597 370.168 334.573 369.84 335.277 369.184C335.997 368.528 336.357 367.632 336.357 366.496V364.792C335.301 366.392 333.797 367.192 331.845 367.192C330.133 367.192 328.685 366.584 327.501 365.368C326.317 364.152 325.725 362.672 325.725 360.928C325.725 359.184 326.317 357.712 327.501 356.512C328.685 355.296 330.133 354.688 331.845 354.688C333.813 354.688 335.317 355.48 336.357 357.064V355ZM329.037 363.976C329.853 364.792 330.869 365.2 332.085 365.2C333.301 365.2 334.317 364.792 335.133 363.976C335.949 363.16 336.357 362.144 336.357 360.928C336.357 359.728 335.949 358.72 335.133 357.904C334.317 357.088 333.301 356.68 332.085 356.68C330.869 356.68 329.853 357.088 329.037 357.904C328.221 358.72 327.812 359.728 327.812 360.928C327.812 362.144 328.221 363.16 329.037 363.976ZM342.64 352.816C342.24 352.816 341.904 352.68 341.632 352.408C341.36 352.136 341.224 351.808 341.224 351.424C341.224 351.04 341.36 350.712 341.632 350.44C341.904 350.152 342.24 350.008 342.64 350.008C343.024 350.008 343.352 350.152 343.624 350.44C343.896 350.712 344.032 351.04 344.032 351.424C344.032 351.808 343.896 352.136 343.624 352.408C343.352 352.68 343.024 352.816 342.64 352.816ZM341.584 367V355H343.672V367H341.584ZM353.385 357.016H350.193V363.52C350.193 364.112 350.305 364.536 350.529 364.792C350.769 365.032 351.129 365.16 351.609 365.176C352.089 365.176 352.681 365.16 353.385 365.128V367C351.561 367.24 350.225 367.096 349.377 366.568C348.529 366.024 348.105 365.008 348.105 363.52V357.016H345.729V355H348.105V352.264L350.193 351.64V355H353.385V357.016ZM365.184 355H367.272V367H365.184V364.936C364.144 366.52 362.632 367.312 360.648 367.312C358.968 367.312 357.536 366.704 356.352 365.488C355.168 364.256 354.576 362.76 354.576 361C354.576 359.24 355.168 357.752 356.352 356.536C357.536 355.304 358.968 354.688 360.648 354.688C362.632 354.688 364.144 355.48 365.184 357.064V355ZM360.912 365.296C362.128 365.296 363.144 364.888 363.96 364.072C364.776 363.24 365.184 362.216 365.184 361C365.184 359.784 364.776 358.768 363.96 357.952C363.144 357.12 362.128 356.704 360.912 356.704C359.712 356.704 358.704 357.12 357.888 357.952C357.072 358.768 356.664 359.784 356.664 361C356.664 362.216 357.072 363.24 357.888 364.072C358.704 364.888 359.712 365.296 360.912 365.296ZM370.436 367V349.48H372.524V367H370.436Z" fill="white"/>
<path d="M499 246C499 313.365 472.661 377.971 425.777 425.605C378.893 473.239 315.304 500 249 500" stroke="white" stroke-width="8"/>
</svg>
