<svg width="508" height="504" viewBox="0 0 508 504" fill="none" xmlns="http://www.w3.org/2000/svg">
<circle cx="250" cy="254" r="249.5" stroke="white"/>
<path d="M166.46 279V270.36L189.884 246.456C195.58 240.76 198.428 235.832 198.428 231.672C198.428 228.408 197.436 225.88 195.452 224.088C193.532 222.232 191.068 221.304 188.06 221.304C182.428 221.304 178.268 224.088 175.58 229.656L166.268 224.184C168.38 219.704 171.356 216.312 175.196 214.008C179.036 211.704 183.292 210.552 187.964 210.552C193.852 210.552 198.908 212.408 203.132 216.12C207.356 219.832 209.468 224.888 209.468 231.288C209.468 238.136 205.66 245.432 198.044 253.176L182.876 268.344H210.716V279H166.46ZM239.759 237.144C246.159 237.144 251.567 239.064 255.983 242.904C260.399 246.68 262.607 251.928 262.607 258.648C262.607 265.368 260.335 270.648 255.791 274.488C251.247 278.328 245.679 280.248 239.087 280.248C233.775 280.248 229.071 279.032 224.975 276.6C220.879 274.104 217.967 270.52 216.239 265.848L225.743 260.376C227.535 266.456 231.983 269.496 239.087 269.496C242.863 269.496 245.871 268.536 248.111 266.616C250.415 264.632 251.567 261.976 251.567 258.648C251.567 255.32 250.447 252.696 248.207 250.776C245.967 248.856 242.991 247.896 239.279 247.896H219.695L222.287 211.8H259.727V222.168H232.463L231.311 237.144H239.759ZM295.477 236.856C292.533 239.8 288.821 241.272 284.341 241.272C279.861 241.272 276.117 239.8 273.109 236.856C270.101 233.848 268.597 230.2 268.597 225.912C268.597 221.624 270.101 218.008 273.109 215.064C276.117 212.056 279.861 210.552 284.341 210.552C288.821 210.552 292.533 212.024 295.477 214.968C298.485 217.912 299.989 221.56 299.989 225.912C299.989 230.2 298.485 233.848 295.477 236.856ZM284.245 232.824C286.293 232.824 287.957 232.152 289.237 230.808C290.517 229.464 291.157 227.832 291.157 225.912C291.157 223.928 290.517 222.264 289.237 220.92C287.957 219.576 286.293 218.904 284.245 218.904C282.261 218.904 280.629 219.576 279.349 220.92C278.069 222.264 277.429 223.928 277.429 225.912C277.429 227.832 278.069 229.464 279.349 230.808C280.629 232.152 282.261 232.824 284.245 232.824ZM274.261 269.112L318.517 219.864L323.701 222.84L279.445 272.184L274.261 269.112ZM315.061 280.152C310.581 280.152 306.837 278.68 303.829 275.736C300.821 272.728 299.317 269.08 299.317 264.792C299.317 260.504 300.821 256.888 303.829 253.944C306.837 250.936 310.581 249.432 315.061 249.432C319.477 249.432 323.189 250.936 326.197 253.944C329.205 256.888 330.709 260.504 330.709 264.792C330.709 269.08 329.205 272.728 326.197 275.736C323.189 278.68 319.477 280.152 315.061 280.152ZM314.965 271.704C317.013 271.704 318.677 271.032 319.957 269.688C321.237 268.344 321.877 266.712 321.877 264.792C321.877 262.808 321.237 261.144 319.957 259.8C318.677 258.456 317.013 257.784 314.965 257.784C312.981 257.784 311.349 258.456 310.069 259.8C308.789 261.144 308.149 262.808 308.149 264.792C308.149 266.712 308.789 268.344 310.069 269.688C311.349 271.032 312.981 271.704 314.965 271.704Z" fill="white"/>
<path d="M144.712 337.312C142.904 337.312 141.4 336.712 140.2 335.512C139 334.296 138.4 332.792 138.4 331C138.4 329.208 139 327.712 140.2 326.512C141.4 325.296 142.904 324.688 144.712 324.688C145.896 324.688 146.96 324.976 147.904 325.552C148.848 326.112 149.552 326.872 150.016 327.832L148.264 328.84C147.96 328.2 147.488 327.688 146.848 327.304C146.224 326.92 145.512 326.728 144.712 326.728C143.512 326.728 142.504 327.136 141.688 327.952C140.888 328.768 140.488 329.784 140.488 331C140.488 332.2 140.888 333.208 141.688 334.024C142.504 334.84 143.512 335.248 144.712 335.248C145.512 335.248 146.232 335.064 146.872 334.696C147.512 334.312 148 333.8 148.336 333.16L150.112 334.192C149.6 335.136 148.864 335.896 147.904 336.472C146.944 337.032 145.88 337.312 144.712 337.312ZM158.821 324.688C160.501 324.688 161.933 325.304 163.117 326.536C164.301 327.752 164.893 329.24 164.893 331C164.893 332.76 164.301 334.256 163.117 335.488C161.933 336.704 160.501 337.312 158.821 337.312C156.837 337.312 155.325 336.52 154.285 334.936V341.8H152.197V325H154.285V327.064C155.325 325.48 156.837 324.688 158.821 324.688ZM158.557 335.296C159.757 335.296 160.765 334.888 161.581 334.072C162.397 333.24 162.805 332.216 162.805 331C162.805 329.784 162.397 328.768 161.581 327.952C160.765 327.12 159.757 326.704 158.557 326.704C157.341 326.704 156.325 327.12 155.509 327.952C154.693 328.768 154.285 329.784 154.285 331C154.285 332.216 154.693 333.24 155.509 334.072C156.325 334.888 157.341 335.296 158.557 335.296ZM168.849 331.96C169.057 333.032 169.545 333.864 170.313 334.456C171.097 335.048 172.057 335.344 173.193 335.344C174.777 335.344 175.929 334.76 176.649 333.592L178.425 334.6C177.257 336.408 175.497 337.312 173.145 337.312C171.241 337.312 169.689 336.72 168.489 335.536C167.305 334.336 166.713 332.824 166.713 331C166.713 329.192 167.297 327.688 168.465 326.488C169.633 325.288 171.145 324.688 173.001 324.688C174.761 324.688 176.193 325.312 177.297 326.56C178.417 327.792 178.977 329.28 178.977 331.024C178.977 331.328 178.953 331.64 178.905 331.96H168.849ZM173.001 326.656C171.881 326.656 170.953 326.976 170.217 327.616C169.481 328.24 169.025 329.08 168.849 330.136H176.865C176.689 329 176.241 328.136 175.521 327.544C174.801 326.952 173.961 326.656 173.001 326.656ZM191.228 335.008H192.884V340.216H190.82V337H181.82V340.216H179.756V335.008H181.22C181.988 333.952 182.372 332.472 182.372 330.568V325H191.228V335.008ZM183.596 335.008H189.164V326.944H184.436V330.568C184.436 332.36 184.156 333.84 183.596 335.008ZM203.439 325H205.527V337H203.439V331.984H197.223V337H195.135V325H197.223V329.992H203.439V325ZM217.681 325V337H215.617V332.68H213.865L210.505 337H207.961L211.465 332.56C210.569 332.336 209.841 331.888 209.281 331.216C208.721 330.544 208.441 329.76 208.441 328.864C208.441 327.76 208.833 326.84 209.617 326.104C210.401 325.368 211.385 325 212.569 325H217.681ZM212.641 330.808H215.617V326.944H212.641C212.049 326.944 211.545 327.12 211.129 327.472C210.713 327.824 210.505 328.296 210.505 328.888C210.505 329.464 210.713 329.928 211.129 330.28C211.545 330.632 212.049 330.808 212.641 330.808ZM229.822 325V337H227.758V332.68H226.006L222.646 337H220.102L223.606 332.56C222.71 332.336 221.982 331.888 221.422 331.216C220.862 330.544 220.582 329.76 220.582 328.864C220.582 327.76 220.974 326.84 221.758 326.104C222.542 325.368 223.526 325 224.71 325H229.822ZM224.782 330.808H227.758V326.944H224.782C224.19 326.944 223.686 327.12 223.27 327.472C222.854 327.824 222.646 328.296 222.646 328.888C222.646 329.464 222.854 329.928 223.27 330.28C223.686 330.632 224.19 330.808 224.782 330.808ZM249.138 337H246.546L241.074 331.312V337H238.986V325H241.074V330.304L246.258 325H248.946L243.21 330.808L249.138 337ZM260.107 335.488C258.875 336.704 257.379 337.312 255.619 337.312C253.859 337.312 252.363 336.704 251.131 335.488C249.915 334.272 249.307 332.776 249.307 331C249.307 329.224 249.915 327.728 251.131 326.512C252.363 325.296 253.859 324.688 255.619 324.688C257.379 324.688 258.875 325.296 260.107 326.512C261.339 327.728 261.955 329.224 261.955 331C261.955 332.776 261.339 334.272 260.107 335.488ZM255.619 335.272C256.819 335.272 257.827 334.864 258.643 334.048C259.459 333.232 259.867 332.216 259.867 331C259.867 329.784 259.459 328.768 258.643 327.952C257.827 327.136 256.819 326.728 255.619 326.728C254.435 326.728 253.435 327.136 252.619 327.952C251.803 328.768 251.395 329.784 251.395 331C251.395 332.216 251.803 333.232 252.619 334.048C253.435 334.864 254.435 335.272 255.619 335.272ZM272.72 325H274.808V337H272.72V331.984H266.504V337H264.416V325H266.504V329.992H272.72V325ZM285.978 330.832C287.21 331.344 287.826 332.272 287.826 333.616C287.826 334.608 287.49 335.424 286.818 336.064C286.162 336.688 285.218 337 283.986 337H277.986V325H283.506C284.706 325 285.634 325.304 286.29 325.912C286.946 326.504 287.274 327.288 287.274 328.264C287.274 329.416 286.842 330.272 285.978 330.832ZM283.41 326.872H280.026V330.016H283.41C284.626 330.016 285.234 329.48 285.234 328.408C285.234 327.384 284.626 326.872 283.41 326.872ZM283.866 335.104C284.474 335.104 284.938 334.96 285.258 334.672C285.594 334.384 285.762 333.976 285.762 333.448C285.762 332.952 285.594 332.568 285.258 332.296C284.938 332.008 284.474 331.864 283.866 331.864H280.026V335.104H283.866ZM291.544 331.96C291.752 333.032 292.24 333.864 293.008 334.456C293.792 335.048 294.752 335.344 295.888 335.344C297.472 335.344 298.624 334.76 299.344 333.592L301.12 334.6C299.952 336.408 298.192 337.312 295.84 337.312C293.936 337.312 292.384 336.72 291.184 335.536C290 334.336 289.408 332.824 289.408 331C289.408 329.192 289.992 327.688 291.16 326.488C292.328 325.288 293.84 324.688 295.696 324.688C297.456 324.688 298.888 325.312 299.992 326.56C301.112 327.792 301.672 329.28 301.672 331.024C301.672 331.328 301.648 331.64 301.6 331.96H291.544ZM295.696 326.656C294.576 326.656 293.648 326.976 292.912 327.616C292.176 328.24 291.72 329.08 291.544 330.136H299.56C299.384 329 298.936 328.136 298.216 327.544C297.496 326.952 296.656 326.656 295.696 326.656ZM310.696 324.688C312.376 324.688 313.808 325.304 314.992 326.536C316.176 327.752 316.768 329.24 316.768 331C316.768 332.76 316.176 334.256 314.992 335.488C313.808 336.704 312.376 337.312 310.696 337.312C308.712 337.312 307.2 336.52 306.16 334.936V341.8H304.072V325H306.16V327.064C307.2 325.48 308.712 324.688 310.696 324.688ZM310.432 335.296C311.632 335.296 312.64 334.888 313.456 334.072C314.272 333.24 314.68 332.216 314.68 331C314.68 329.784 314.272 328.768 313.456 327.952C312.64 327.12 311.632 326.704 310.432 326.704C309.216 326.704 308.2 327.12 307.384 327.952C306.568 328.768 306.16 329.784 306.16 331C306.16 332.216 306.568 333.24 307.384 334.072C308.2 334.888 309.216 335.296 310.432 335.296ZM324.9 337.312C323.092 337.312 321.588 336.712 320.388 335.512C319.188 334.296 318.588 332.792 318.588 331C318.588 329.208 319.188 327.712 320.388 326.512C321.588 325.296 323.092 324.688 324.9 324.688C326.084 324.688 327.148 324.976 328.092 325.552C329.036 326.112 329.74 326.872 330.204 327.832L328.452 328.84C328.148 328.2 327.676 327.688 327.036 327.304C326.412 326.92 325.7 326.728 324.9 326.728C323.7 326.728 322.692 327.136 321.876 327.952C321.076 328.768 320.676 329.784 320.676 331C320.676 332.2 321.076 333.208 321.876 334.024C322.692 334.84 323.7 335.248 324.9 335.248C325.7 335.248 326.42 335.064 327.06 334.696C327.7 334.312 328.188 333.8 328.524 333.16L330.3 334.192C329.788 335.136 329.052 335.896 328.092 336.472C327.132 337.032 326.068 337.312 324.9 337.312ZM341.097 325H342.777V337H340.713V328.576L334.065 337H332.385V325H334.449V333.424L341.097 325ZM354.931 325V337H352.867V332.68H351.115L347.755 337H345.211L348.715 332.56C347.819 332.336 347.091 331.888 346.531 331.216C345.971 330.544 345.691 329.76 345.691 328.864C345.691 327.76 346.083 326.84 346.867 326.104C347.651 325.368 348.635 325 349.819 325H354.931ZM349.891 330.808H352.867V326.944H349.891C349.299 326.944 348.795 327.12 348.379 327.472C347.963 327.824 347.755 328.296 347.755 328.888C347.755 329.464 347.963 329.928 348.379 330.28C348.795 330.632 349.299 330.808 349.891 330.808ZM125.15 364.832C126.382 365.344 126.998 366.272 126.998 367.616C126.998 368.608 126.662 369.424 125.99 370.064C125.334 370.688 124.39 371 123.158 371H117.158V359H122.678C123.878 359 124.806 359.304 125.462 359.912C126.118 360.504 126.446 361.288 126.446 362.264C126.446 363.416 126.014 364.272 125.15 364.832ZM122.582 360.872H119.198V364.016H122.582C123.798 364.016 124.406 363.48 124.406 362.408C124.406 361.384 123.798 360.872 122.582 360.872ZM123.038 369.104C123.646 369.104 124.11 368.96 124.43 368.672C124.766 368.384 124.934 367.976 124.934 367.448C124.934 366.952 124.766 366.568 124.43 366.296C124.11 366.008 123.646 365.864 123.038 365.864H119.198V369.104H123.038ZM141.732 364.856C143.06 365.4 143.724 366.352 143.724 367.712C143.724 368.72 143.324 369.576 142.524 370.28C141.724 370.968 140.588 371.312 139.116 371.312C136.716 371.312 135.108 370.352 134.292 368.432L136.044 367.4C136.508 368.712 137.54 369.368 139.14 369.368C139.94 369.368 140.556 369.2 140.988 368.864C141.436 368.512 141.66 368.064 141.66 367.52C141.66 367.04 141.476 366.648 141.108 366.344C140.756 366.04 140.276 365.888 139.668 365.888H137.916V363.992H139.212C139.82 363.992 140.292 363.848 140.628 363.56C140.964 363.256 141.132 362.848 141.132 362.336C141.132 361.824 140.932 361.408 140.532 361.088C140.148 360.768 139.612 360.608 138.924 360.608C137.58 360.608 136.668 361.176 136.188 362.312L134.484 361.328C135.332 359.568 136.812 358.688 138.924 358.688C140.236 358.688 141.268 359.024 142.02 359.696C142.788 360.368 143.172 361.192 143.172 362.168C143.172 363.384 142.692 364.28 141.732 364.856ZM155.922 359H158.01V371H155.922V368.936C154.882 370.52 153.37 371.312 151.386 371.312C149.706 371.312 148.274 370.704 147.09 369.488C145.906 368.256 145.314 366.76 145.314 365C145.314 363.24 145.906 361.752 147.09 360.536C148.274 359.304 149.706 358.688 151.386 358.688C153.37 358.688 154.882 359.48 155.922 361.064V359ZM151.65 369.296C152.866 369.296 153.882 368.888 154.698 368.072C155.514 367.24 155.922 366.216 155.922 365C155.922 363.784 155.514 362.768 154.698 361.952C153.882 361.12 152.866 360.704 151.65 360.704C150.45 360.704 149.442 361.12 148.626 361.952C147.81 362.768 147.402 363.784 147.402 365C147.402 366.216 147.81 367.24 148.626 368.072C149.442 368.888 150.45 369.296 151.65 369.296ZM170.15 359V371H168.086V366.68H166.334L162.974 371H160.43L163.934 366.56C163.038 366.336 162.31 365.888 161.75 365.216C161.19 364.544 160.91 363.76 160.91 362.864C160.91 361.76 161.302 360.84 162.086 360.104C162.87 359.368 163.854 359 165.038 359H170.15ZM165.11 364.808H168.086V360.944H165.11C164.518 360.944 164.014 361.12 163.598 361.472C163.182 361.824 162.974 362.296 162.974 362.888C162.974 363.464 163.182 363.928 163.598 364.28C164.014 364.632 164.518 364.808 165.11 364.808ZM181.306 364.832C182.538 365.344 183.154 366.272 183.154 367.616C183.154 368.608 182.818 369.424 182.146 370.064C181.49 370.688 180.546 371 179.314 371H173.314V359H178.834C180.034 359 180.962 359.304 181.618 359.912C182.274 360.504 182.602 361.288 182.602 362.264C182.602 363.416 182.17 364.272 181.306 364.832ZM178.738 360.872H175.354V364.016H178.738C179.954 364.016 180.562 363.48 180.562 362.408C180.562 361.384 179.954 360.872 178.738 360.872ZM179.194 369.104C179.802 369.104 180.266 368.96 180.586 368.672C180.922 368.384 181.09 367.976 181.09 367.448C181.09 366.952 180.922 366.568 180.586 366.296C180.266 366.008 179.802 365.864 179.194 365.864H175.354V369.104H179.194ZM195.56 371H192.968L187.496 365.312V371H185.408V359H187.496V364.304L192.68 359H195.368L189.632 364.808L195.56 371ZM205.526 359H207.758L202.862 371.744C202.35 373.104 201.63 374.136 200.702 374.84C199.774 375.56 198.718 375.88 197.534 375.8V373.856C199.006 373.968 200.086 373.168 200.774 371.456L200.966 371.024L195.758 359H197.966L202.07 368.408L205.526 359ZM220.95 371.312C219.174 371.312 217.71 370.728 216.558 369.56C215.406 368.392 214.83 366.888 214.83 365.048C214.83 363 215.126 361.424 215.718 360.32C216.326 359.216 217.558 358.216 219.414 357.32C219.75 357.16 220.206 356.952 220.782 356.696C221.374 356.44 221.806 356.248 222.078 356.12C222.35 355.976 222.654 355.792 222.99 355.568C223.326 355.328 223.574 355.072 223.734 354.8C223.91 354.512 224.038 354.184 224.118 353.816L225.798 354.776C225.75 355.032 225.686 355.272 225.606 355.496C225.526 355.704 225.406 355.912 225.246 356.12C225.102 356.312 224.974 356.48 224.862 356.624C224.75 356.768 224.558 356.928 224.286 357.104C224.03 357.264 223.838 357.384 223.71 357.464C223.598 357.544 223.366 357.664 223.014 357.824C222.678 357.984 222.446 358.096 222.318 358.16C222.206 358.208 221.942 358.32 221.526 358.496C221.11 358.656 220.854 358.76 220.758 358.808C219.67 359.272 218.87 359.744 218.358 360.224C217.862 360.704 217.502 361.312 217.278 362.048C217.79 361.408 218.43 360.936 219.198 360.632C219.966 360.328 220.734 360.176 221.502 360.176C223.006 360.176 224.278 360.688 225.318 361.712C226.374 362.736 226.902 364.056 226.902 365.672C226.902 367.304 226.342 368.656 225.222 369.728C224.102 370.784 222.678 371.312 220.95 371.312ZM218.142 368.24C218.894 368.944 219.83 369.296 220.95 369.296C222.07 369.296 222.99 368.952 223.71 368.264C224.446 367.576 224.814 366.712 224.814 365.672C224.814 364.6 224.462 363.728 223.758 363.056C223.07 362.368 222.158 362.024 221.022 362.024C219.998 362.024 219.07 362.352 218.238 363.008C217.422 363.648 217.014 364.496 217.014 365.552C217.014 366.64 217.39 367.536 218.142 368.24ZM238.705 359V371H236.617V361.016H231.889V365.912C231.889 367.88 231.489 369.256 230.689 370.04C229.905 370.808 228.793 371.128 227.353 371V369.032C228.169 369.144 228.777 368.968 229.177 368.504C229.593 368.024 229.801 367.144 229.801 365.864V359H238.705ZM251.805 359H253.893V371H251.805V368.936C250.765 370.52 249.253 371.312 247.269 371.312C245.589 371.312 244.157 370.704 242.973 369.488C241.789 368.256 241.197 366.76 241.197 365C241.197 363.24 241.789 361.752 242.973 360.536C244.157 359.304 245.589 358.688 247.269 358.688C249.253 358.688 250.765 359.48 251.805 361.064V359ZM247.533 369.296C248.749 369.296 249.765 368.888 250.581 368.072C251.397 367.24 251.805 366.216 251.805 365C251.805 363.784 251.397 362.768 250.581 361.952C249.765 361.12 248.749 360.704 247.533 360.704C246.333 360.704 245.325 361.12 244.509 361.952C243.693 362.768 243.285 363.784 243.285 365C243.285 366.216 243.693 367.24 244.509 368.072C245.325 368.888 246.333 369.296 247.533 369.296ZM264.929 359V361.016H259.145V371H257.057V359H264.929ZM276.419 369.488C275.187 370.704 273.691 371.312 271.931 371.312C270.171 371.312 268.675 370.704 267.443 369.488C266.227 368.272 265.619 366.776 265.619 365C265.619 363.224 266.227 361.728 267.443 360.512C268.675 359.296 270.171 358.688 271.931 358.688C273.691 358.688 275.187 359.296 276.419 360.512C277.651 361.728 278.267 363.224 278.267 365C278.267 366.776 277.651 368.272 276.419 369.488ZM271.931 369.272C273.131 369.272 274.139 368.864 274.955 368.048C275.771 367.232 276.179 366.216 276.179 365C276.179 363.784 275.771 362.768 274.955 361.952C274.139 361.136 273.131 360.728 271.931 360.728C270.747 360.728 269.747 361.136 268.931 361.952C268.115 362.768 267.707 363.784 267.707 365C267.707 366.216 268.115 367.232 268.931 368.048C269.747 368.864 270.747 369.272 271.931 369.272ZM290.58 369.008H292.236V374.216H290.172V371H281.172V374.216H279.108V369.008H280.572C281.34 367.952 281.724 366.472 281.724 364.568V359H290.58V369.008ZM282.948 369.008H288.516V360.944H283.788V364.568C283.788 366.36 283.508 367.84 282.948 369.008ZM303.954 359H306.042V371H303.954V368.936C302.914 370.52 301.402 371.312 299.418 371.312C297.738 371.312 296.306 370.704 295.122 369.488C293.938 368.256 293.346 366.76 293.346 365C293.346 363.24 293.938 361.752 295.122 360.536C296.306 359.304 297.738 358.688 299.418 358.688C301.402 358.688 302.914 359.48 303.954 361.064V359ZM299.682 369.296C300.898 369.296 301.914 368.888 302.73 368.072C303.546 367.24 303.954 366.216 303.954 365C303.954 363.784 303.546 362.768 302.73 361.952C301.914 361.12 300.898 360.704 299.682 360.704C298.482 360.704 297.474 361.12 296.658 361.952C295.842 362.768 295.434 363.784 295.434 365C295.434 366.216 295.842 367.24 296.658 368.072C297.474 368.888 298.482 369.296 299.682 369.296ZM315.829 358.688C317.509 358.688 318.941 359.304 320.125 360.536C321.309 361.752 321.901 363.24 321.901 365C321.901 366.76 321.309 368.256 320.125 369.488C318.941 370.704 317.509 371.312 315.829 371.312C313.845 371.312 312.333 370.52 311.293 368.936V375.8H309.205V359H311.293V361.064C312.333 359.48 313.845 358.688 315.829 358.688ZM315.565 369.296C316.765 369.296 317.773 368.888 318.589 368.072C319.405 367.24 319.813 366.216 319.813 365C319.813 363.784 319.405 362.768 318.589 361.952C317.773 361.12 316.765 360.704 315.565 360.704C314.349 360.704 313.333 361.12 312.517 361.952C311.701 362.768 311.293 363.784 311.293 365C311.293 366.216 311.701 367.24 312.517 368.072C313.333 368.888 314.349 369.296 315.565 369.296ZM332.9 359V371H330.836V366.68H329.084L325.724 371H323.18L326.684 366.56C325.788 366.336 325.06 365.888 324.5 365.216C323.94 364.544 323.66 363.76 323.66 362.864C323.66 361.76 324.052 360.84 324.836 360.104C325.62 359.368 326.604 359 327.788 359H332.9ZM327.86 364.808H330.836V360.944H327.86C327.268 360.944 326.764 361.12 326.348 361.472C325.932 361.824 325.724 362.296 325.724 362.888C325.724 363.464 325.932 363.928 326.348 364.28C326.764 364.632 327.268 364.808 327.86 364.808ZM350.368 359H352.456V371H350.368V365.984H344.152V371H342.064V359H344.152V363.992H350.368V359ZM365.571 359H367.659V371H365.571V368.936C364.531 370.52 363.019 371.312 361.035 371.312C359.355 371.312 357.923 370.704 356.739 369.488C355.555 368.256 354.963 366.76 354.963 365C354.963 363.24 355.555 361.752 356.739 360.536C357.923 359.304 359.355 358.688 361.035 358.688C363.019 358.688 364.531 359.48 365.571 361.064V359ZM361.299 369.296C362.515 369.296 363.531 368.888 364.347 368.072C365.163 367.24 365.571 366.216 365.571 365C365.571 363.784 365.163 362.768 364.347 361.952C363.531 361.12 362.515 360.704 361.299 360.704C360.099 360.704 359.091 361.12 358.275 361.952C357.459 362.768 357.051 363.784 357.051 365C357.051 366.216 357.459 367.24 358.275 368.072C359.091 368.888 360.099 369.296 361.299 369.296ZM382.822 359V371H380.782V362.288L376.966 368.432H376.702L372.886 362.288V371H370.822V359H373.054L376.822 365.072L380.59 359H382.822Z" fill="white"/>
<path d="M250 4.00002C317.365 4.00002 381.971 30.3392 429.605 77.2233C477.239 124.107 504 187.696 504 254" stroke="white" stroke-width="8"/>
</svg>
