<svg width="508" height="504" viewBox="0 0 508 504" fill="none" xmlns="http://www.w3.org/2000/svg">
<circle cx="254" cy="250" r="249.5" stroke="white"/>
<path d="M504 246C504 313.365 477.661 377.971 430.777 425.605C383.893 473.239 320.304 500 254 500C187.696 500 124.107 473.239 77.2233 425.605C30.3392 377.971 4.00001 313.365 4 246" stroke="white" stroke-width="8"/>
<path d="M167.69 207.8H210.41V217.4L186.794 275H175.178L198.41 218.36H167.69V207.8ZM261.07 266.744C256.462 273.08 249.998 276.248 241.678 276.248C233.358 276.248 226.862 273.08 222.19 266.744C217.582 260.408 215.278 251.96 215.278 241.4C215.278 230.84 217.582 222.392 222.19 216.056C226.862 209.72 233.358 206.552 241.678 206.552C249.998 206.552 256.462 209.72 261.07 216.056C265.742 222.392 268.078 230.84 268.078 241.4C268.078 251.96 265.742 260.408 261.07 266.744ZM241.678 265.496C246.67 265.496 250.478 263.416 253.102 259.256C255.726 255.096 257.038 249.144 257.038 241.4C257.038 233.656 255.726 227.704 253.102 223.544C250.478 219.384 246.67 217.304 241.678 217.304C236.75 217.304 232.942 219.384 230.254 223.544C227.63 227.704 226.318 233.656 226.318 241.4C226.318 249.144 227.63 255.096 230.254 259.256C232.942 263.416 236.75 265.496 241.678 265.496ZM301.711 232.856C298.767 235.8 295.055 237.272 290.575 237.272C286.095 237.272 282.351 235.8 279.343 232.856C276.335 229.848 274.831 226.2 274.831 221.912C274.831 217.624 276.335 214.008 279.343 211.064C282.351 208.056 286.095 206.552 290.575 206.552C295.055 206.552 298.767 208.024 301.711 210.968C304.719 213.912 306.223 217.56 306.223 221.912C306.223 226.2 304.719 229.848 301.711 232.856ZM290.479 228.824C292.527 228.824 294.191 228.152 295.471 226.808C296.751 225.464 297.391 223.832 297.391 221.912C297.391 219.928 296.751 218.264 295.471 216.92C294.191 215.576 292.527 214.904 290.479 214.904C288.495 214.904 286.863 215.576 285.583 216.92C284.303 218.264 283.663 219.928 283.663 221.912C283.663 223.832 284.303 225.464 285.583 226.808C286.863 228.152 288.495 228.824 290.479 228.824ZM280.495 265.112L324.751 215.864L329.935 218.84L285.679 268.184L280.495 265.112ZM321.295 276.152C316.815 276.152 313.071 274.68 310.063 271.736C307.055 268.728 305.551 265.08 305.551 260.792C305.551 256.504 307.055 252.888 310.063 249.944C313.071 246.936 316.815 245.432 321.295 245.432C325.711 245.432 329.423 246.936 332.431 249.944C335.439 252.888 336.943 256.504 336.943 260.792C336.943 265.08 335.439 268.728 332.431 271.736C329.423 274.68 325.711 276.152 321.295 276.152ZM321.199 267.704C323.247 267.704 324.911 267.032 326.191 265.688C327.471 264.344 328.111 262.712 328.111 260.792C328.111 258.808 327.471 257.144 326.191 255.8C324.911 254.456 323.247 253.784 321.199 253.784C319.215 253.784 317.583 254.456 316.303 255.8C315.023 257.144 314.383 258.808 314.383 260.792C314.383 262.712 315.023 264.344 316.303 265.688C317.583 267.032 319.215 267.704 321.199 267.704Z" fill="white"/>
<path d="M116.783 321H118.871V333H116.783V327.984H110.567V333H108.479V321H110.567V325.992H116.783V321ZM131.985 321H134.073V333H131.985V330.936C130.945 332.52 129.433 333.312 127.449 333.312C125.769 333.312 124.337 332.704 123.153 331.488C121.969 330.256 121.377 328.76 121.377 327C121.377 325.24 121.969 323.752 123.153 322.536C124.337 321.304 125.769 320.688 127.449 320.688C129.433 320.688 130.945 321.48 131.985 323.064V321ZM127.713 331.296C128.929 331.296 129.945 330.888 130.761 330.072C131.577 329.24 131.985 328.216 131.985 327C131.985 325.784 131.577 324.768 130.761 323.952C129.945 323.12 128.929 322.704 127.713 322.704C126.513 322.704 125.505 323.12 124.689 323.952C123.873 324.768 123.465 325.784 123.465 327C123.465 328.216 123.873 329.24 124.689 330.072C125.505 330.888 126.513 331.296 127.713 331.296ZM151.588 321H153.676V333H137.236V321H139.324V331.008H144.412V321H146.5V331.008H151.588V321ZM165.589 321H167.269V333H165.205V324.576L158.557 333H156.877V321H158.941V329.424L165.589 321ZM180.863 333H178.415L175.055 328.464L171.671 333H169.223L173.831 326.832L169.487 321H171.959L175.055 325.176L178.151 321H180.599L176.279 326.808L180.863 333ZM198.951 333H196.359L190.887 327.312V333H188.799V321H190.887V326.304L196.071 321H198.759L193.023 326.808L198.951 333ZM210.901 321V333H208.813V323.016H204.085V327.912C204.085 329.88 203.685 331.256 202.885 332.04C202.101 332.808 200.989 333.128 199.549 333V331.032C200.365 331.144 200.973 330.968 201.373 330.504C201.789 330.024 201.997 329.144 201.997 327.864V321H210.901ZM222.776 321H224.456V333H222.392V324.576L215.744 333H214.064V321H216.128V329.424L222.776 321ZM229.099 327.96C229.307 329.032 229.795 329.864 230.563 330.456C231.347 331.048 232.307 331.344 233.443 331.344C235.027 331.344 236.179 330.76 236.899 329.592L238.675 330.6C237.507 332.408 235.747 333.312 233.395 333.312C231.491 333.312 229.939 332.72 228.739 331.536C227.555 330.336 226.963 328.824 226.963 327C226.963 325.192 227.547 323.688 228.715 322.488C229.883 321.288 231.395 320.688 233.251 320.688C235.011 320.688 236.443 321.312 237.547 322.56C238.667 323.792 239.227 325.28 239.227 327.024C239.227 327.328 239.203 327.64 239.155 327.96H229.099ZM233.251 322.656C232.131 322.656 231.203 322.976 230.467 323.616C229.731 324.24 229.275 325.08 229.099 326.136H237.115C236.939 325 236.491 324.136 235.771 323.544C235.051 322.952 234.211 322.656 233.251 322.656ZM249.931 321H252.019V333H249.931V327.984H243.715V333H241.627V321H243.715V325.992H249.931V321ZM264.125 321V323.016H260.045V333H257.957V323.016H253.853V321H264.125ZM275.614 331.488C274.382 332.704 272.886 333.312 271.126 333.312C269.366 333.312 267.87 332.704 266.638 331.488C265.422 330.272 264.814 328.776 264.814 327C264.814 325.224 265.422 323.728 266.638 322.512C267.87 321.296 269.366 320.688 271.126 320.688C272.886 320.688 274.382 321.296 275.614 322.512C276.846 323.728 277.462 325.224 277.462 327C277.462 328.776 276.846 330.272 275.614 331.488ZM271.126 331.272C272.326 331.272 273.334 330.864 274.15 330.048C274.966 329.232 275.374 328.216 275.374 327C275.374 325.784 274.966 324.768 274.15 323.952C273.334 323.136 272.326 322.728 271.126 322.728C269.942 322.728 268.942 323.136 268.126 323.952C267.31 324.768 266.902 325.784 266.902 327C266.902 328.216 267.31 329.232 268.126 330.048C268.942 330.864 269.942 331.272 271.126 331.272ZM287.916 326.832C289.148 327.344 289.764 328.272 289.764 329.616C289.764 330.608 289.428 331.424 288.756 332.064C288.1 332.688 287.156 333 285.924 333H279.924V321H285.444C286.644 321 287.572 321.304 288.228 321.912C288.884 322.504 289.212 323.288 289.212 324.264C289.212 325.416 288.78 326.272 287.916 326.832ZM285.348 322.872H281.964V326.016H285.348C286.564 326.016 287.172 325.48 287.172 324.408C287.172 323.384 286.564 322.872 285.348 322.872ZM285.804 331.104C286.412 331.104 286.876 330.96 287.196 330.672C287.532 330.384 287.7 329.976 287.7 329.448C287.7 328.952 287.532 328.568 287.196 328.296C286.876 328.008 286.412 327.864 285.804 327.864H281.964V331.104H285.804ZM308.41 321V333H306.322V322.992H300.106V333H298.018V321H308.41ZM318.212 320.688C319.892 320.688 321.324 321.304 322.508 322.536C323.692 323.752 324.284 325.24 324.284 327C324.284 328.76 323.692 330.256 322.508 331.488C321.324 332.704 319.892 333.312 318.212 333.312C316.228 333.312 314.716 332.52 313.676 330.936V337.8H311.588V321H313.676V323.064C314.716 321.48 316.228 320.688 318.212 320.688ZM317.948 331.296C319.148 331.296 320.156 330.888 320.972 330.072C321.788 329.24 322.196 328.216 322.196 327C322.196 325.784 321.788 324.768 320.972 323.952C320.156 323.12 319.148 322.704 317.948 322.704C316.732 322.704 315.716 323.12 314.9 323.952C314.084 324.768 313.676 325.784 313.676 327C313.676 328.216 314.084 329.24 314.9 330.072C315.716 330.888 316.732 331.296 317.948 331.296ZM335.487 321H337.167V333H335.103V324.576L328.455 333H326.775V321H328.839V329.424L335.487 321ZM350.762 333H348.314L344.954 328.464L341.57 333H339.122L343.73 326.832L339.386 321H341.858L344.954 325.176L348.05 321H350.498L346.178 326.808L350.762 333ZM361.982 331.488C360.75 332.704 359.254 333.312 357.494 333.312C355.734 333.312 354.238 332.704 353.006 331.488C351.79 330.272 351.182 328.776 351.182 327C351.182 325.224 351.79 323.728 353.006 322.512C354.238 321.296 355.734 320.688 357.494 320.688C359.254 320.688 360.75 321.296 361.982 322.512C363.214 323.728 363.83 325.224 363.83 327C363.83 328.776 363.214 330.272 361.982 331.488ZM357.494 331.272C358.694 331.272 359.702 330.864 360.518 330.048C361.334 329.232 361.742 328.216 361.742 327C361.742 325.784 361.334 324.768 360.518 323.952C359.702 323.136 358.694 322.728 357.494 322.728C356.31 322.728 355.31 323.136 354.494 323.952C353.678 324.768 353.27 325.784 353.27 327C353.27 328.216 353.678 329.232 354.494 330.048C355.31 330.864 356.31 331.272 357.494 331.272ZM376.142 331.008H377.798V336.216H375.734V333H366.734V336.216H364.67V331.008H366.134C366.902 329.952 367.286 328.472 367.286 326.568V321H376.142V331.008ZM368.51 331.008H374.078V322.944H369.35V326.568C369.35 328.36 369.07 329.84 368.51 331.008ZM388.767 321V333H386.703V328.68H384.951L381.591 333H379.047L382.551 328.56C381.655 328.336 380.927 327.888 380.367 327.216C379.807 326.544 379.527 325.76 379.527 324.864C379.527 323.76 379.919 322.84 380.703 322.104C381.487 321.368 382.471 321 383.655 321H388.767ZM383.727 326.808H386.703V322.944H383.727C383.135 322.944 382.631 323.12 382.215 323.472C381.799 323.824 381.591 324.296 381.591 324.888C381.591 325.464 381.799 325.928 382.215 326.28C382.631 326.632 383.135 326.808 383.727 326.808ZM400.86 321V323.016H396.78V333H394.692V323.016H390.588V321H400.86ZM165.113 355V367H163.025V356.992H156.809V367H154.721V355H165.113ZM178.419 365.488C177.187 366.704 175.691 367.312 173.931 367.312C172.171 367.312 170.675 366.704 169.443 365.488C168.227 364.272 167.619 362.776 167.619 361C167.619 359.224 168.227 357.728 169.443 356.512C170.675 355.296 172.171 354.688 173.931 354.688C175.691 354.688 177.187 355.296 178.419 356.512C179.651 357.728 180.267 359.224 180.267 361C180.267 362.776 179.651 364.272 178.419 365.488ZM173.931 365.272C175.131 365.272 176.139 364.864 176.955 364.048C177.771 363.232 178.179 362.216 178.179 361C178.179 359.784 177.771 358.768 176.955 357.952C176.139 357.136 175.131 356.728 173.931 356.728C172.747 356.728 171.747 357.136 170.931 357.952C170.115 358.768 169.707 359.784 169.707 361C169.707 362.216 170.115 363.232 170.931 364.048C171.747 364.864 172.747 365.272 173.931 365.272ZM195.353 354.688C197.033 354.688 198.465 355.304 199.649 356.536C200.833 357.752 201.425 359.24 201.425 361C201.425 362.76 200.833 364.256 199.649 365.488C198.465 366.704 197.033 367.312 195.353 367.312C193.369 367.312 191.857 366.52 190.817 364.936V371.8H188.729V355H190.817V357.064C191.857 355.48 193.369 354.688 195.353 354.688ZM195.089 365.296C196.289 365.296 197.297 364.888 198.113 364.072C198.929 363.24 199.337 362.216 199.337 361C199.337 359.784 198.929 358.768 198.113 357.952C197.297 357.12 196.289 356.704 195.089 356.704C193.873 356.704 192.857 357.12 192.041 357.952C191.225 358.768 190.817 359.784 190.817 361C190.817 362.216 191.225 363.24 192.041 364.072C192.857 364.888 193.873 365.296 195.089 365.296ZM205.38 361.96C205.588 363.032 206.076 363.864 206.844 364.456C207.628 365.048 208.588 365.344 209.724 365.344C211.308 365.344 212.46 364.76 213.18 363.592L214.956 364.6C213.788 366.408 212.028 367.312 209.676 367.312C207.772 367.312 206.22 366.72 205.02 365.536C203.836 364.336 203.244 362.824 203.244 361C203.244 359.192 203.828 357.688 204.996 356.488C206.164 355.288 207.676 354.688 209.532 354.688C211.292 354.688 212.724 355.312 213.828 356.56C214.948 357.792 215.508 359.28 215.508 361.024C215.508 361.328 215.484 361.64 215.436 361.96H205.38ZM209.532 356.656C208.412 356.656 207.484 356.976 206.748 357.616C206.012 358.24 205.556 359.08 205.38 360.136H213.396C213.22 359 212.772 358.136 212.052 357.544C211.332 356.952 210.492 356.656 209.532 356.656ZM228.06 367H225.468L219.996 361.312V367H217.908V355H219.996V360.304L225.18 355H227.868L222.132 360.808L228.06 367ZM239.028 365.488C237.796 366.704 236.3 367.312 234.54 367.312C232.78 367.312 231.284 366.704 230.052 365.488C228.836 364.272 228.228 362.776 228.228 361C228.228 359.224 228.836 357.728 230.052 356.512C231.284 355.296 232.78 354.688 234.54 354.688C236.3 354.688 237.796 355.296 239.028 356.512C240.26 357.728 240.876 359.224 240.876 361C240.876 362.776 240.26 364.272 239.028 365.488ZM234.54 365.272C235.74 365.272 236.748 364.864 237.564 364.048C238.38 363.232 238.788 362.216 238.788 361C238.788 359.784 238.38 358.768 237.564 357.952C236.748 357.136 235.74 356.728 234.54 356.728C233.356 356.728 232.356 357.136 231.54 357.952C230.724 358.768 230.316 359.784 230.316 361C230.316 362.216 230.724 363.232 231.54 364.048C232.356 364.864 233.356 365.272 234.54 365.272ZM255.338 355V367H253.298V358.288L249.482 364.432H249.218L245.402 358.288V367H243.338V355H245.57L249.338 361.072L253.106 355H255.338ZM259.989 361.96C260.197 363.032 260.685 363.864 261.453 364.456C262.237 365.048 263.197 365.344 264.333 365.344C265.917 365.344 267.069 364.76 267.789 363.592L269.565 364.6C268.397 366.408 266.637 367.312 264.285 367.312C262.381 367.312 260.829 366.72 259.629 365.536C258.445 364.336 257.853 362.824 257.853 361C257.853 359.192 258.437 357.688 259.605 356.488C260.773 355.288 262.285 354.688 264.141 354.688C265.901 354.688 267.333 355.312 268.437 356.56C269.557 357.792 270.117 359.28 270.117 361.024C270.117 361.328 270.093 361.64 270.045 361.96H259.989ZM264.141 356.656C263.021 356.656 262.093 356.976 261.357 357.616C260.621 358.24 260.165 359.08 259.989 360.136H268.005C267.829 359 267.381 358.136 266.661 357.544C265.941 356.952 265.101 356.656 264.141 356.656ZM280.822 355H282.91V367H280.822V361.984H274.606V367H272.518V355H274.606V359.992H280.822V355ZM296.408 365.008H298.064V370.216H296V367H287V370.216H284.936V365.008H286.4C287.168 363.952 287.552 362.472 287.552 360.568V355H296.408V365.008ZM288.776 365.008H294.344V356.944H289.616V360.568C289.616 362.36 289.336 363.84 288.776 365.008ZM309.782 355H311.87V367H309.782V364.936C308.742 366.52 307.23 367.312 305.246 367.312C303.566 367.312 302.134 366.704 300.95 365.488C299.766 364.256 299.174 362.76 299.174 361C299.174 359.24 299.766 357.752 300.95 356.536C302.134 355.304 303.566 354.688 305.246 354.688C307.23 354.688 308.742 355.48 309.782 357.064V355ZM305.51 365.296C306.726 365.296 307.742 364.888 308.558 364.072C309.374 363.24 309.782 362.216 309.782 361C309.782 359.784 309.374 358.768 308.558 357.952C307.742 357.12 306.726 356.704 305.51 356.704C304.31 356.704 303.302 357.12 302.486 357.952C301.67 358.768 301.262 359.784 301.262 361C301.262 362.216 301.67 363.24 302.486 364.072C303.302 364.888 304.31 365.296 305.51 365.296ZM325.113 365.008H327.081V370.216H325.017V367H315.033V355H317.121V365.008H323.025V355H325.113V365.008ZM338.019 355H339.699V367H337.635V358.576L330.987 367H329.307V355H331.371V363.424L338.019 355ZM351.589 355H353.269V367H351.205V358.576L344.557 367H342.877V355H344.941V363.424L351.589 355Z" fill="white"/>
</svg>
