<svg width="279" height="50" viewBox="0 0 279 50" fill="none" xmlns="http://www.w3.org/2000/svg">
<path d="M28.3636 12L20.1818 22.8334L26.4 31.0667L22.9091 33.6666C19.2219 28.7916 13.0909 20.6666 13.0909 20.6666L0 38H48L28.3636 12Z" fill="white"/>
<path d="M83.404 33.716C82.612 33.716 82.216 33.536 82.216 32.564V26.012C82.216 21.584 79.228 19.28 74.044 19.28C69.148 19.28 65.836 21.656 65.476 25.256H70.372C70.588 23.888 71.92 22.988 73.9 22.988C76.024 22.988 77.212 24.068 77.212 25.724V26.624H73.54C67.996 26.624 65.044 28.856 65.044 32.78C65.044 36.308 67.924 38.216 71.92 38.216C74.8 38.216 76.672 37.028 77.968 34.976C77.932 36.74 78.76 38 81.388 38H83.98V33.716H83.404ZM77.212 30.368C77.176 32.888 75.556 34.544 72.892 34.544C71.2 34.544 70.156 33.716 70.156 32.42C70.156 30.872 71.38 30.008 73.504 30.008H77.212V30.368ZM85.9437 38H91.0197V12.8H85.9437V38ZM105.177 19.28C102.549 19.28 100.677 20.468 99.489 22.052L98.985 19.496H94.557V45.2H99.633V35.66C100.821 37.172 102.657 38.216 105.213 38.216C110.181 38.216 113.781 34.544 113.781 28.784C113.781 22.952 110.181 19.244 105.177 19.28ZM104.061 34.076C101.289 34.076 99.561 31.88 99.561 28.712C99.561 25.58 101.289 23.42 104.061 23.42C106.833 23.42 108.633 25.58 108.633 28.712C108.633 31.88 106.833 34.076 104.061 34.076ZM119.156 17.516C120.812 17.516 122.108 16.292 122.108 14.672C122.108 13.016 120.812 11.792 119.156 11.792C117.5 11.792 116.204 13.016 116.204 14.672C116.204 16.292 117.5 17.516 119.156 17.516ZM116.6 38H121.712V19.496H116.6V38ZM135.833 19.28C132.989 19.28 131.297 20.36 130.109 21.8L129.641 19.496H125.213V38H130.289V28.532C130.289 25.328 131.801 23.456 134.429 23.456C136.985 23.456 138.173 25.112 138.173 28.244V38H143.249V27.74C143.249 21.404 139.829 19.28 135.833 19.28ZM155.521 38.216C160.453 38.216 163.657 35.336 164.233 31.736H159.229C158.797 33.464 157.357 34.364 155.305 34.364C152.749 34.364 151.057 32.78 150.949 30.152V29.9H164.377C164.485 29.324 164.521 28.712 164.521 28.172C164.449 22.736 160.705 19.28 155.161 19.28C149.437 19.28 145.657 23.024 145.657 28.784C145.657 34.508 149.365 38.216 155.521 38.216ZM151.057 26.588C151.345 24.392 153.001 23.06 155.197 23.06C157.501 23.06 159.049 24.32 159.409 26.588H151.057ZM165.916 35.228C165.916 36.956 167.212 38.216 168.976 38.216C170.704 38.216 172.036 36.956 172.036 35.228C172.036 33.464 170.704 32.204 168.976 32.204C167.212 32.204 165.916 33.464 165.916 35.228ZM174.06 31.844C174.276 35.804 177.768 38.216 182.916 38.216C187.884 38.216 191.34 35.876 191.34 32.204C191.34 28.028 187.812 27.056 183.564 26.624C180.9 26.3 179.316 26.156 179.316 24.752C179.316 23.564 180.612 22.844 182.592 22.844C184.644 22.844 186.048 23.744 186.192 25.22H191.052C190.8 21.44 187.38 19.244 182.412 19.244C177.66 19.208 174.456 21.62 174.456 25.292C174.456 29.108 177.804 30.08 182.124 30.584C185.112 30.98 186.372 31.088 186.372 32.6C186.372 33.896 185.076 34.58 182.952 34.58C180.468 34.58 179.064 33.464 178.884 31.844H174.06ZM195.346 32.708C195.346 36.236 197.11 38 200.638 38H204.778V33.716H202.258C200.926 33.716 200.422 33.176 200.422 31.88V23.78H204.67V19.496H200.422V14.312H195.346V19.496H192.286V23.78H195.346V32.708ZM219.475 28.748C219.475 32.168 217.999 34.004 215.479 34.004C212.959 34.004 211.879 32.384 211.879 29.072V19.496H206.803V29.756C206.803 36.308 210.331 38.216 214.147 38.216C216.775 38.216 218.395 37.208 219.583 35.768L220.051 38H224.551V19.496H219.475V28.748ZM241.508 21.8C240.32 20.288 238.484 19.28 235.928 19.28C230.996 19.28 227.36 22.988 227.36 28.712C227.36 34.58 230.996 38.216 235.964 38.216C238.628 38.216 240.428 37.028 241.652 35.444L242.156 38H246.584V12.8H241.508V21.8ZM237.08 34.076C234.308 34.076 232.544 31.916 232.544 28.748C232.544 25.58 234.308 23.42 237.08 23.42C239.852 23.42 241.58 25.616 241.58 28.784C241.58 31.916 239.852 34.076 237.08 34.076ZM252.679 17.516C254.335 17.516 255.631 16.292 255.631 14.672C255.631 13.016 254.335 11.792 252.679 11.792C251.023 11.792 249.727 13.016 249.727 14.672C249.727 16.292 251.023 17.516 252.679 17.516ZM250.123 38H255.235V19.496H250.123V38ZM267.773 38.216C273.677 38.216 277.529 34.472 277.529 28.748C277.529 23.06 273.677 19.28 267.773 19.28C261.869 19.28 258.017 23.06 258.017 28.748C258.017 34.436 261.869 38.216 267.773 38.216ZM267.773 34.076C264.929 34.076 263.201 31.88 263.201 28.748C263.201 25.616 264.929 23.42 267.773 23.42C270.617 23.42 272.381 25.616 272.381 28.748C272.381 31.88 270.617 34.076 267.773 34.076Z" fill="white"/>
</svg>
